<svg width="24" height="24" viewBox="0 0 24 24" fill="none" xmlns="http://www.w3.org/2000/svg">
<path d="M13.2001 12L22.3501 2.84998C22.6876 2.51248 22.6876 1.98748 22.3501 1.64998C22.0126 1.31248 21.4876 1.31248 21.1501 1.64998L12.0001 10.8L2.8501 1.64998C2.5126 1.31248 1.9876 1.31248 1.6501 1.64998C1.3126 1.98748 1.3126 2.51248 1.6501 2.84998L10.8001 12L1.6501 21.15C1.3126 21.4875 1.3126 22.0125 1.6501 22.35C1.8001 22.5 2.0251 22.6125 2.2501 22.6125C2.4751 22.6125 2.7001 22.5375 2.8501 22.35L12.0001 13.2L21.1501 22.35C21.3001 22.5 21.5251 22.6125 21.7501 22.6125C21.9751 22.6125 22.2001 22.5375 22.3501 22.35C22.6876 22.0125 22.6876 21.4875 22.3501 21.15L13.2001 12Z" fill="#111928"/>
</svg>
