<svg width="22" height="21" viewBox="0 0 22 21" fill="none" xmlns="http://www.w3.org/2000/svg">
<path d="M19.4574 4.33203L15.848 0.919531C15.6074 0.689844 15.2637 0.558594 14.9199 0.558594H8.66367C7.6668 0.558594 6.8418 1.34609 6.8418 2.29766V14.2742C6.8418 15.2258 7.6668 16.0133 8.66367 16.0133H18.0137C19.0105 16.0133 19.8355 15.2258 19.8355 14.2742V5.21797C19.8355 4.88984 19.698 4.56172 19.4574 4.33203ZM15.9168 3.08516L17.223 4.33203H15.9168V3.08516ZM18.0137 14.5367H8.66367C8.52617 14.5367 8.38867 14.4055 8.38867 14.2742V2.29766C8.38867 2.16641 8.52617 2.03516 8.66367 2.03516H14.3699V5.05391C14.3699 5.44766 14.7137 5.80859 15.1605 5.80859H18.2887V14.307C18.2887 14.4383 18.1512 14.5367 18.0137 14.5367Z" fill="#F3F4F6"/>
<path d="M15.1602 7.38281H10.6227C10.2102 7.38281 9.83203 7.71094 9.83203 8.1375C9.83203 8.56406 10.1758 8.89219 10.6227 8.89219H15.1602C15.5727 8.89219 15.9508 8.56406 15.9508 8.1375C15.9508 7.71094 15.5727 7.38281 15.1602 7.38281Z" fill="#F3F4F6"/>
<path d="M15.1602 10.1406H10.6227C10.2102 10.1406 9.83203 10.4688 9.83203 10.8953C9.83203 11.2891 10.1758 11.65 10.6227 11.65H15.1602C15.5727 11.65 15.9508 11.3219 15.9508 10.8953C15.9164 10.4688 15.5727 10.1406 15.1602 10.1406Z" fill="#F3F4F6"/>
<path d="M14.3691 17.0625C13.9566 17.0625 13.5785 17.3906 13.5785 17.8172V18.7031C13.5785 18.8344 13.441 18.9656 13.3035 18.9656H3.98789C3.85039 18.9656 3.71289 18.8344 3.71289 18.7031V6.69375C3.71289 6.5625 3.85039 6.43125 3.98789 6.43125H5.15664C5.56914 6.43125 5.94727 6.10312 5.94727 5.67656C5.94727 5.25 5.60352 4.92188 5.15664 4.92188H3.98789C2.99102 4.92188 2.16602 5.70937 2.16602 6.66094V18.7031C2.16602 19.6547 2.99102 20.4422 3.98789 20.4422H13.3379C14.3348 20.4422 15.1598 19.6547 15.1598 18.7031V17.8172C15.1598 17.3906 14.816 17.0625 14.3691 17.0625Z" fill="#F3F4F6"/>
</svg>
