<svg width="24" height="24" viewBox="0 0 24 24" fill="none" xmlns="http://www.w3.org/2000/svg">
<g clip-path="url(#clip0_310_6769)">
<path d="M12 0.675049C5.73755 0.675049 0.675049 5.73755 0.675049 12C0.675049 18.2626 5.73755 23.3625 12 23.3625C18.2626 23.3625 23.3625 18.2626 23.3625 12C23.3625 5.73755 18.2626 0.675049 12 0.675049ZM12 21.675C6.67505 21.675 2.36255 17.325 2.36255 12C2.36255 6.67505 6.67505 2.36255 12 2.36255C17.325 2.36255 21.675 6.71255 21.675 12.0375C21.675 17.325 17.325 21.675 12 21.675Z" fill="#111928"/>
<path d="M15.4501 8.51252C15.1126 8.17502 14.5876 8.17502 14.2501 8.51252L12.0001 10.8L9.71265 8.51252C9.37515 8.17502 8.85015 8.17502 8.51265 8.51252C8.17515 8.85002 8.17515 9.37502 8.51265 9.71252L10.8001 12L8.51265 14.2875C8.17515 14.625 8.17515 15.15 8.51265 15.4875C8.66265 15.6375 8.88765 15.75 9.11265 15.75C9.33765 15.75 9.56265 15.675 9.71265 15.4875L12.0001 13.2L14.2876 15.4875C14.4376 15.6375 14.6626 15.75 14.8876 15.75C15.1126 15.75 15.3376 15.675 15.4876 15.4875C15.8251 15.15 15.8251 14.625 15.4876 14.2875L13.2001 12L15.4876 9.71252C15.7876 9.37502 15.7876 8.85002 15.4501 8.51252Z" fill="#111928"/>
</g>
<defs>
<clipPath id="clip0_310_6769">
<rect width="24" height="24" fill="white"/>
</clipPath>
</defs>
</svg>
