<svg width="26" height="23" viewBox="0 0 26 23" fill="none" xmlns="http://www.w3.org/2000/svg">
<g clip-path="url(#clip0_2300_318)">
<path d="M13.815 8.13154C13.9471 8.24754 14.0221 8.40551 14.0234 8.57072C14.0247 8.73592 13.9523 8.89483 13.822 9.01247C13.6917 9.13011 13.5142 9.19685 13.3286 9.19801C13.143 9.19918 12.9645 9.13467 12.8324 9.01867L10.2121 6.71089V17.8093C10.2121 17.9738 10.1387 18.1316 10.008 18.248C9.87731 18.3643 9.70006 18.4297 9.51523 18.4297C9.33041 18.4297 9.15315 18.3643 9.02246 18.248C8.89177 18.1316 8.81835 17.9738 8.81835 17.8093V6.71089L6.23989 9.01867C6.17492 9.07611 6.09787 9.12158 6.01315 9.15251C5.92843 9.18344 5.83769 9.19921 5.74613 9.19892C5.65456 9.19864 5.56395 9.18229 5.47948 9.15083C5.39501 9.11937 5.31832 9.07341 5.25381 9.01557C5.18929 8.95773 5.1382 8.88914 5.10346 8.81372C5.06871 8.7383 5.051 8.65753 5.05132 8.57601C5.05165 8.4945 5.07 8.41384 5.10534 8.33864C5.14068 8.26344 5.19231 8.19518 5.25729 8.13774L9.51523 4.34728L13.815 8.13154Z" fill="white"/>
<path d="M12.6863 14.4527C12.6855 14.3294 12.7259 14.2088 12.8025 14.1061C12.879 14.0034 12.9881 13.9234 13.116 13.8761C13.2438 13.8289 13.3845 13.8166 13.5203 13.8408C13.656 13.865 13.7805 13.9247 13.878 14.0122L16.4843 16.3138V5.22156C16.4843 5.05703 16.5577 4.89923 16.6884 4.78289C16.8191 4.66655 16.9964 4.60119 17.1812 4.60119C17.366 4.60119 17.5433 4.66655 17.674 4.78289C17.8047 4.89923 17.8781 5.05703 17.8781 5.22156V16.3138L20.4774 14.0122C20.5424 13.9548 20.6195 13.9093 20.7042 13.8784C20.7889 13.8474 20.8796 13.8317 20.9712 13.832C21.0628 13.8322 21.1534 13.8486 21.2379 13.88C21.3223 13.9115 21.399 13.9575 21.4635 14.0153C21.528 14.0732 21.5791 14.1417 21.6139 14.2172C21.6486 14.2926 21.6663 14.3733 21.666 14.4549C21.6654 14.6195 21.5913 14.7771 21.46 14.8931L17.1812 18.6836L12.9023 14.8931C12.8352 14.8362 12.7816 14.7679 12.7445 14.6923C12.7074 14.6166 12.6876 14.5352 12.6863 14.4527Z" fill="white"/>
</g>
<defs>
<clipPath id="clip0_2300_318">
<rect width="23" height="26" fill="white" transform="matrix(0 -1 -1 0 26 23)"/>
</clipPath>
</defs>
</svg>
