<svg width="24" height="24" viewBox="0 0 24 24" fill="none" xmlns="http://www.w3.org/2000/svg">
<path d="M11.9638 7.30908H11.9274C11.4911 7.30908 11.0911 7.67272 11.0911 8.14545C11.0911 8.61817 11.4547 8.98181 11.9274 8.98181H11.9638C12.4002 8.98181 12.8002 8.61817 12.8002 8.14545C12.8002 7.67272 12.4365 7.30908 11.9638 7.30908Z" fill="#111928"/>
<path d="M11.9638 10.1819C11.5274 10.1819 11.1274 10.5455 11.1274 11.0182V16.6182C11.1274 17.0546 11.4911 17.4546 11.9638 17.4546C12.4002 17.4546 12.8002 17.091 12.8002 16.6182V10.9819C12.8002 10.5455 12.4365 10.1819 11.9638 10.1819Z" fill="#111928"/>
<path d="M11.9637 1.01819C5.89101 1.01819 0.945557 5.92728 0.945557 12C0.945557 18.0727 5.89101 23.0182 11.9637 23.0182C18.0365 23.0182 22.9456 18.0727 22.9456 12C22.9456 5.92728 18.0365 1.01819 11.9637 1.01819ZM11.9637 21.3818C6.8001 21.3818 2.58192 17.1636 2.58192 12C2.58192 6.83637 6.8001 2.61819 11.9637 2.61819C17.1274 2.61819 21.3092 6.83637 21.3092 12C21.3092 17.1636 17.1274 21.3818 11.9637 21.3818Z" fill="#111928"/>
</svg>
