<svg width="18" height="18" viewBox="0 0 18 18" fill="none" xmlns="http://www.w3.org/2000/svg">
<path d="M9.00039 10.6578C9.33789 10.6578 9.64726 10.3766 9.64726 10.0109V1.40469C9.64726 1.06719 9.36601 0.757812 9.00039 0.757812C8.66289 0.757812 8.35352 1.03906 8.35352 1.40469V10.0391C8.38164 10.3766 8.66289 10.6578 9.00039 10.6578Z" fill="#F3F4F6"/>
<path d="M12.1219 2.72651C11.8125 2.58589 11.4187 2.72651 11.2781 3.03589C11.1375 3.34526 11.2781 3.73901 11.5875 3.87964C13.8375 4.89214 15.3 7.17026 15.3 9.64526C15.3 13.1328 12.4594 15.9734 8.97187 15.9734C5.48438 15.9734 2.67188 13.1328 2.67188 9.64526C2.67188 7.17026 4.13438 4.92026 6.38438 3.87964C6.69375 3.73901 6.83437 3.37339 6.69375 3.03589C6.55312 2.72651 6.1875 2.58589 5.85 2.72651C3.17812 3.96401 1.40625 6.66401 1.40625 9.64526C1.40625 13.8359 4.80938 17.239 9 17.239C13.1906 17.239 16.5938 13.8359 16.5938 9.64526C16.5938 6.66401 14.8219 3.96401 12.1219 2.72651Z" fill="#F3F4F6"/>
</svg>
