<svg width="25" height="24" viewBox="0 0 25 24" fill="none" xmlns="http://www.w3.org/2000/svg">
<g clip-path="url(#clip0_2223_105)">
<path d="M3.50995 10.8766C3.62245 10.8766 3.77245 10.8391 3.88495 10.8016L8.04745 9.33906C8.49745 9.18906 8.72245 8.70156 8.57245 8.25156C8.42245 7.80156 7.93495 7.57656 7.48495 7.72656L4.89745 8.62656C6.13495 5.40156 9.28495 3.22656 12.885 3.22656C16.8225 3.22656 20.2349 5.85156 21.2099 9.60156C21.3224 10.0516 21.7724 10.3141 22.2225 10.2016C22.6724 10.0891 22.9349 9.63906 22.8225 9.18906C21.66 4.68906 17.5725 1.53906 12.8475 1.53906C8.64745 1.53906 4.93495 4.01406 3.39745 7.72656L2.60995 5.47656C2.45995 5.02656 1.97245 4.80156 1.52245 4.95156C1.07245 5.10156 0.84745 5.58906 0.99745 6.03906L2.42245 10.1266C2.64745 10.6141 3.05995 10.8766 3.50995 10.8766Z" fill="#9CA3AF"/>
<path d="M23.6467 18.6383L22.1092 14.6258C21.9967 14.3633 21.8092 14.1383 21.5467 14.0258C21.2842 13.9133 20.9842 13.9133 20.7217 14.0258L16.5967 15.6008C16.1467 15.7508 15.9592 16.2383 16.1092 16.6883C16.2592 17.1383 16.7467 17.3258 17.1967 17.1758L19.7842 16.2008C18.2842 18.9383 15.3592 20.7383 12.0967 20.7383C8.38417 20.7383 5.12167 18.4133 3.95917 14.9633C3.80917 14.5133 3.32167 14.2883 2.90917 14.4383C2.45917 14.5883 2.23417 15.0758 2.38417 15.4883C3.77167 19.6133 7.67167 22.3883 12.0967 22.3883C15.9592 22.3883 19.4467 20.2508 21.2092 16.9508L22.0717 19.2383C22.1842 19.5758 22.5217 19.7633 22.8592 19.7633C22.9717 19.7633 23.0467 19.7633 23.1592 19.6883C23.6092 19.5758 23.7967 19.0883 23.6467 18.6383Z" fill="#9CA3AF"/>
</g>
<defs>
<clipPath id="clip0_2223_105">
<rect width="24" height="24" fill="white" transform="translate(0.359375)"/>
</clipPath>
</defs>
</svg>
