<svg width="24" height="24" viewBox="0 0 24 24" fill="none" xmlns="http://www.w3.org/2000/svg">
<path d="M23.0251 20.8876L16.8376 15.8625C19.3876 12.375 19.1251 7.38755 15.9376 4.23755C14.2501 2.55005 12.0001 1.61255 9.6001 1.61255C7.2001 1.61255 4.9501 2.55005 3.2626 4.23755C-0.224902 7.72505 -0.224902 13.425 3.2626 16.9125C4.9501 18.6 7.2001 19.5375 9.6001 19.5375C11.8876 19.5375 14.0251 18.6751 15.7126 17.1376L21.9751 22.2001C22.1251 22.3126 22.3126 22.3876 22.5001 22.3876C22.7626 22.3876 22.9876 22.2751 23.1376 22.0876C23.4376 21.7126 23.4001 21.1876 23.0251 20.8876ZM9.6001 17.85C7.6501 17.85 5.8501 17.1001 4.4626 15.7126C1.6126 12.8626 1.6126 8.25005 4.4626 5.43755C5.8501 4.05005 7.6501 3.30005 9.6001 3.30005C11.5501 3.30005 13.3501 4.05005 14.7376 5.43755C17.5876 8.28755 17.5876 12.9001 14.7376 15.7126C13.3876 17.1001 11.5501 17.85 9.6001 17.85Z" fill="#111928"/>
</svg>
