<svg width="23" height="24" viewBox="0 0 23 24" fill="none" xmlns="http://www.w3.org/2000/svg">
<path d="M22.3253 9.69531C21.9503 9.28281 21.4253 9.05781 20.8628 9.05781H20.7503C20.5628 9.05781 20.4128 8.94531 20.3753 8.79531C20.3378 8.64531 20.2628 8.53281 20.2253 8.38281C20.1503 8.23281 20.2253 8.08281 20.3378 7.97031L20.4128 7.89531C20.8253 7.52031 21.0503 6.99531 21.0503 6.43281C21.0503 5.87031 20.8628 5.34531 20.4503 4.93281L18.9878 3.43281C18.2003 2.60781 16.8503 2.57031 16.0253 3.39531L15.9128 3.47031C15.8003 3.58281 15.6128 3.62031 15.4253 3.54531C15.2753 3.47031 15.1253 3.39531 14.9378 3.35781C14.7503 3.28281 14.6378 3.13281 14.6378 2.98281V2.79531C14.6378 1.63281 13.7003 0.695312 12.5378 0.695312H10.4378C9.87531 0.695312 9.35031 0.920313 8.97531 1.29531C8.56281 1.70781 8.37531 2.23281 8.37531 2.75781V2.90781C8.37531 3.05781 8.2628 3.20781 8.11281 3.28281C8.03781 3.32031 8.00031 3.32031 7.92531 3.35781C7.77531 3.43281 7.58781 3.39531 7.47531 3.28281L7.40031 3.17031C7.02531 2.75781 6.50031 2.53281 5.93781 2.53281C5.37531 2.53281 4.85031 2.72031 4.43781 3.13281L2.93781 4.59531C2.11281 5.38281 2.07531 6.73281 2.90031 7.55781L2.97531 7.67031C3.08781 7.78281 3.12531 7.97031 3.05031 8.08281C2.97531 8.23281 2.93781 8.34531 2.86281 8.49531C2.78781 8.64531 2.67531 8.72031 2.48781 8.72031H2.37531C1.81281 8.72031 1.28781 8.90781 0.875306 9.32031C0.462806 9.69531 0.237806 10.2203 0.237806 10.7828L0.200306 12.8828C0.162806 14.0453 1.10031 14.9828 2.26281 15.0203H2.37531C2.56281 15.0203 2.71281 15.1328 2.75031 15.2828C2.82531 15.3953 2.90031 15.5078 2.93781 15.6578C2.97531 15.8078 2.93781 15.9578 2.82531 16.0703L2.75031 16.1453C2.33781 16.5203 2.11281 17.0453 2.11281 17.6078C2.11281 18.1703 2.30031 18.6953 2.71281 19.1078L4.17531 20.6078C4.96281 21.4328 6.31281 21.4703 7.13781 20.6453L7.25031 20.5703C7.36281 20.4578 7.55031 20.4203 7.73781 20.4953C7.88781 20.5703 8.03781 20.6453 8.22531 20.6828C8.41281 20.7578 8.52531 20.9078 8.52531 21.0578V21.2078C8.52531 22.3703 9.46281 23.3078 10.6253 23.3078H12.7253C13.8878 23.3078 14.8253 22.3703 14.8253 21.2078V21.0578C14.8253 20.9078 14.9378 20.7578 15.0878 20.6828C15.1628 20.6453 15.2003 20.6453 15.2753 20.6078C15.4628 20.5328 15.6128 20.5703 15.7253 20.6828L15.8003 20.7953C16.1753 21.2078 16.7003 21.4328 17.2628 21.4328C17.8253 21.4328 18.3503 21.2453 18.7628 20.8328L20.2628 19.3703C21.0878 18.5828 21.1253 17.2328 20.3003 16.4078L20.2253 16.2953C20.1128 16.1828 20.0753 15.9953 20.1503 15.8828C20.2253 15.7328 20.2628 15.6203 20.3378 15.4703C20.4128 15.3203 20.5628 15.2453 20.7128 15.2453H20.8253H20.8628C21.9878 15.2453 22.9253 14.3453 22.9628 13.1828L23.0003 11.0828C22.9253 10.6328 22.7003 10.0703 22.3253 9.69531ZM21.2003 13.2203C21.2003 13.4453 21.0128 13.6328 20.7878 13.6328H20.6753H20.6378C19.7753 13.6328 18.9878 14.1578 18.6878 14.9078C18.6503 15.0203 18.5753 15.1328 18.5378 15.2453C18.2003 15.9953 18.3503 16.9328 18.9503 17.5328L19.0253 17.6453C19.1753 17.7953 19.1753 18.0578 19.0253 18.2078L17.5253 19.6703C17.4128 19.7828 17.3003 19.7828 17.2253 19.7828C17.1503 19.7828 17.0378 19.7828 16.9253 19.6703L16.8503 19.5578C16.2503 18.9203 15.3503 18.7328 14.5253 19.1078L14.3753 19.1828C13.5503 19.5203 13.0253 20.2703 13.0253 21.1328V21.2828C13.0253 21.5078 12.8378 21.6953 12.6128 21.6953H10.5128C10.2878 21.6953 10.1003 21.5078 10.1003 21.2828V21.1328C10.1003 20.2703 9.57531 19.4828 8.75031 19.1828C8.63781 19.1453 8.48781 19.0703 8.37531 19.0328C8.07531 18.8828 7.77531 18.8453 7.47531 18.8453C6.95031 18.8453 6.42531 19.0328 6.01281 19.4453L5.93781 19.4828C5.78781 19.6328 5.52531 19.6328 5.37531 19.4828L3.91281 17.9828C3.80031 17.8703 3.80031 17.7578 3.80031 17.6828C3.80031 17.6078 3.80031 17.4953 3.91281 17.3828L3.98781 17.3078C4.62531 16.7078 4.81281 15.7703 4.47531 15.0203C4.43781 14.9078 4.40031 14.7953 4.32531 14.6828C4.02531 13.8953 3.27531 13.3328 2.41281 13.3328H2.30031C2.07531 13.3328 1.88781 13.1453 1.88781 12.9203L1.92531 10.8203C1.92531 10.6703 2.00031 10.5953 2.03781 10.5203C2.07531 10.4828 2.18781 10.4078 2.33781 10.4078H2.45031C3.31281 10.4453 4.10031 9.92031 4.43781 9.13281C4.47531 9.02031 4.55031 8.90781 4.58781 8.79531C4.92531 8.04531 4.77531 7.10781 4.17531 6.50781L4.10031 6.39531C3.95031 6.24531 3.95031 5.98281 4.10031 5.83281L5.60031 4.37031C5.71281 4.25781 5.82531 4.25781 5.90031 4.25781C5.97531 4.25781 6.08781 4.25781 6.20031 4.37031L6.27531 4.48281C6.87531 5.12031 7.77531 5.30781 8.60031 4.97031L8.75031 4.89531C9.57531 4.55781 10.1003 3.80781 10.1003 2.94531V2.79531C10.1003 2.64531 10.1753 2.57031 10.2128 2.49531C10.2503 2.42031 10.3628 2.38281 10.5128 2.38281H12.6128C12.8378 2.38281 13.0253 2.57031 13.0253 2.79531V2.94531C13.0253 3.80781 13.5503 4.59531 14.3753 4.89531C14.4878 4.93281 14.6378 5.00781 14.7503 5.04531C15.5378 5.42031 16.4753 5.27031 17.1128 4.67031L17.2253 4.59531C17.3753 4.44531 17.6378 4.44531 17.7878 4.59531L19.2503 6.09531C19.3628 6.20781 19.3628 6.32031 19.3628 6.39531C19.3628 6.47031 19.3253 6.58281 19.2503 6.69531L19.1753 6.77031C18.5003 7.33281 18.3128 8.27031 18.6128 9.02031C18.6503 9.13281 18.6878 9.24531 18.7628 9.35781C19.0628 10.1453 19.8128 10.7078 20.6753 10.7078H20.7878C20.9378 10.7078 21.0128 10.7828 21.0878 10.8203C21.1628 10.8578 21.2003 10.9703 21.2003 11.1203V13.2203Z" fill="#9CA3AF"/>
<path d="M11.5629 6.92188C8.75039 6.92188 6.46289 9.20938 6.46289 12.0219C6.46289 14.8344 8.75039 17.1219 11.5629 17.1219C14.3754 17.1219 16.6629 14.8344 16.6629 12.0219C16.6629 9.20938 14.3754 6.92188 11.5629 6.92188ZM11.5629 15.4344C9.68789 15.4344 8.15039 13.8969 8.15039 12.0219C8.15039 10.1469 9.68789 8.60938 11.5629 8.60938C13.4379 8.60938 14.9754 10.1469 14.9754 12.0219C14.9754 13.8969 13.4379 15.4344 11.5629 15.4344Z" fill="#9CA3AF"/>
</svg>
