<svg width="18" height="18" viewBox="0 0 18 18" fill="none" xmlns="http://www.w3.org/2000/svg">
<g clip-path="url(#clip0_2254_1059)">
<path d="M17.3254 13.581L14.6254 10.7404C14.3723 10.4873 13.9785 10.4873 13.7254 10.7123C13.4723 10.9654 13.4723 11.3591 13.6973 11.6123L15.3848 13.3841H1.12539C0.787891 13.3841 0.478516 13.6654 0.478516 14.031C0.478516 14.3966 0.759766 14.6779 1.12539 14.6779H15.4129L13.7254 16.4498C13.4723 16.7029 13.5004 17.0966 13.7535 17.3498C13.866 17.4623 14.0348 17.5185 14.1754 17.5185C14.3441 17.5185 14.5129 17.4623 14.6254 17.3216L17.3254 14.481C17.5785 14.1998 17.5785 13.806 17.3254 13.581Z" fill="#5B86E5"/>
<path d="M3.37461 7.25449C3.48711 7.39512 3.65586 7.45137 3.82461 7.45137C3.99336 7.45137 4.13398 7.39512 4.24648 7.28262C4.49961 7.02949 4.49961 6.63574 4.27461 6.38262L2.58711 4.61074H16.8746C17.2121 4.61074 17.5215 4.32949 17.5215 3.96387C17.5215 3.59824 17.2402 3.31699 16.8746 3.31699H2.58711L4.27461 1.54512C4.52773 1.29199 4.49961 0.898241 4.24648 0.645116C3.99336 0.391991 3.59961 0.420116 3.34648 0.673241L0.674609 3.54199C0.449609 3.79512 0.449609 4.16074 0.674609 4.41387L3.37461 7.25449Z" fill="#5B86E5"/>
</g>
<defs>
<clipPath id="clip0_2254_1059">
<rect width="18" height="18" fill="white"/>
</clipPath>
</defs>
</svg>
