<svg width="32" height="32" viewBox="0 0 32 32" fill="none" xmlns="http://www.w3.org/2000/svg">
<rect width="32" height="32" fill="url(#paint0_linear_2350_1015)"/>
<g clip-path="url(#clip0_2350_1015)">
<path d="M24.6563 10.6562C24.6563 10.625 24.625 10.625 24.625 10.5937C24.4063 10.2812 24.0938 10 23.7188 9.84375L16.9688 6.75C16.3438 6.46875 15.6563 6.46875 15.0313 6.75L8.3125 9.84375C7.9375 10 7.65625 10.2813 7.40625 10.5625C7.375 10.5938 7.34375 10.625 7.3125 10.6562C7.3125 10.6875 7.28125 10.6875 7.28125 10.7188C7.0625 11.0938 6.9375 11.5 6.9375 11.9375V19.75C6.9375 20.625 7.4375 21.4375 8.21875 21.8125L14.9375 25.1875C15.25 25.3438 15.625 25.4375 15.9688 25.4375C16.3125 25.4375 16.6875 25.3438 17 25.1875L23.7188 21.8125C24.5 21.4063 25 20.625 25 19.75V11.9375C25.0625 11.4687 24.9063 11.0312 24.6563 10.6562ZM15.625 8.03125C15.75 7.96875 15.875 7.9375 16 7.9375C16.125 7.9375 16.25 7.96875 16.375 8.03125L22.6875 10.9375L16 14.2187L9.3125 10.9375L15.625 8.03125ZM8.84375 20.5625C8.53125 20.4062 8.34375 20.0938 8.34375 19.75V12.0312L15.2813 15.4375V23.8125L8.84375 20.5625ZM23.1563 20.5625L16.6875 23.8125V15.4375L23.625 12.0312V19.75C23.6563 20.0938 23.4375 20.4062 23.1563 20.5625Z" fill="white"/>
</g>
<defs>
<linearGradient id="paint0_linear_2350_1015" x1="0" y1="16" x2="32" y2="16" gradientUnits="userSpaceOnUse">
<stop stop-color="#72DFE7"/>
<stop offset="1" stop-color="#8CAAED"/>
</linearGradient>
<clipPath id="clip0_2350_1015">
<rect width="20" height="20" fill="white" transform="translate(6 6)"/>
</clipPath>
</defs>
</svg>
