<svg width="32" height="32" viewBox="0 0 32 32" fill="none" xmlns="http://www.w3.org/2000/svg">
<g clip-path="url(#clip0_2346_979)">
<circle cx="16" cy="16" r="16" fill="url(#paint0_linear_2346_979)"/>
<g clip-path="url(#clip1_2346_979)">
<path d="M17.4254 15.1766H14.7629C13.9754 15.1766 13.3379 14.5766 13.3379 13.8266C13.3379 13.0766 13.9754 12.4766 14.7629 12.4766H18.6254C19.0754 12.4766 19.4504 12.1016 19.4504 11.6516C19.4504 11.2016 19.0754 10.8266 18.6254 10.8266H16.8254V9.92656C16.8254 9.47656 16.4504 9.10156 16.0004 9.10156C15.5504 9.10156 15.1754 9.47656 15.1754 9.92656V10.8266H14.7629C13.0379 10.8266 11.6504 12.1766 11.6504 13.8641C11.6504 15.5516 13.0379 16.9016 14.7629 16.9016H17.4254C18.2129 16.9016 18.8504 17.5016 18.8504 18.2516C18.8504 19.0016 18.2129 19.6016 17.4254 19.6016H13.3754C12.9254 19.6016 12.5504 19.9766 12.5504 20.4266C12.5504 20.8766 12.9254 21.2516 13.3754 21.2516H15.1754V22.1516C15.1754 22.6016 15.5504 22.9766 16.0004 22.9766C16.4504 22.9766 16.8254 22.6016 16.8254 22.1516V21.2516H17.4254C19.1504 21.2516 20.5379 19.9016 20.5379 18.2141C20.5754 16.5266 19.1504 15.1766 17.4254 15.1766Z" fill="white"/>
<path d="M16.0008 4.67578C9.73828 4.67578 4.67578 9.73828 4.67578 16.0008C4.67578 22.2633 9.73828 27.3258 16.0008 27.3258C22.2633 27.3258 27.3258 22.2633 27.3258 16.0008C27.3258 9.73828 22.2633 4.67578 16.0008 4.67578ZM16.0008 25.6758C10.6758 25.6758 6.32578 21.3258 6.32578 16.0008C6.32578 10.6758 10.6758 6.32578 16.0008 6.32578C21.3258 6.32578 25.6758 10.6758 25.6758 16.0008C25.6758 21.3258 21.3258 25.6758 16.0008 25.6758Z" fill="white"/>
</g>
</g>
<defs>
<linearGradient id="paint0_linear_2346_979" x1="0" y1="16" x2="32" y2="16" gradientUnits="userSpaceOnUse">
<stop stop-color="#72DFE7"/>
<stop offset="1" stop-color="#8CAAED"/>
</linearGradient>
<clipPath id="clip0_2346_979">
<rect width="32" height="32" fill="white"/>
</clipPath>
<clipPath id="clip1_2346_979">
<rect width="24" height="24" fill="white" transform="translate(4 4)"/>
</clipPath>
</defs>
</svg>
