<svg width="180" height="180" viewBox="0 0 180 180" fill="none" xmlns="http://www.w3.org/2000/svg">
<path d="M168.211 169.221L129.439 157.977L100.2 175L79.7997 174.991L50.5434 157.977L11.789 169.221L0 130.462L11.789 87.445L0 51.0758L11.789 6L72.3457 41.2368H107.653L168.211 6L180 51.0758L168.211 87.445L180 130.462L168.211 169.221Z" fill="#FF5C16"/>
<path d="M12 6L72.3976 41.035L69.996 65.0792L12 6ZM50.653 129.678L77.2273 149.319L50.653 157V129.678ZM75.1036 97.2056L69.996 65.0952L37.3031 86.9313L37.2853 86.9227V86.9387L37.3868 109.415L50.6441 97.2068L75.1036 97.2056ZM168 6L107.602 41.035L109.996 65.0792L168 6ZM129.348 129.678L102.773 149.319L129.348 157V129.678ZM142.706 86.9375V86.9215L142.698 86.9301L110.005 65.0952L104.898 97.2056H129.347L142.613 109.412L142.706 86.9375Z" fill="#FF5C16"/>
<path d="M50.5434 158.667L11.789 170L0 130.95H50.5434V158.667ZM75.0589 98L82.4621 145.093L72.202 118.908L37.2344 110.392L50.5345 98.0013H75.0589V98ZM129.455 158.667L168.211 170L180 130.95H129.455V158.667ZM104.941 98L97.538 145.093L107.797 118.908L142.766 110.392L129.457 98.0013H104.941V98Z" fill="#E34807"/>
<path d="M0 130.237L11.789 87.2146H37.1402L37.2331 109.847L72.2033 118.297L82.4621 144.278L77.1883 150L50.5434 130.229H0V130.237ZM180 130.237L168.211 87.2146H142.858L142.766 109.847L107.798 118.297L97.538 144.278L102.81 150L129.457 130.229H180V130.237ZM107.653 41H72.3457L69.948 65.2032L82.4633 144.253H97.538L110.061 65.2032L107.653 41Z" fill="#FF8D5D"/>
<path d="M11.789 6L0 50.9053L11.789 87.1368H37.1402L69.9378 65.2364L11.789 6ZM67.7321 106.788H56.2471L49.9939 112.736L72.2109 118.08L67.7321 106.781V106.788ZM168.211 6L180 50.9053L168.211 87.1368H142.858L110.062 65.2364L168.211 6ZM112.284 106.788H123.786L130.039 112.743L107.797 118.097L112.284 106.78V106.788ZM100.191 159L102.812 149.692L97.538 143.993H82.4519L77.1794 149.692L79.7985 159" fill="#661800"/>
<path d="M101 159V175H79V159H101Z" fill="#C0C4CD"/>
<path d="M50 157.802L79.6703 175V159.429L77.0136 150L50 157.802ZM130 157.802L100.328 175V159.429L102.985 150L130 157.802Z" fill="#E7EBF6"/>
</svg>
