<svg width="180" height="180" viewBox="0 0 180 180" fill="none" xmlns="http://www.w3.org/2000/svg">
<g clip-path="url(#clip0_2318_1004)">
<path d="M180 0H0V180H180V0Z" fill="#8697FF"/>
<path d="M161.264 99.8118C166.92 86.7252 138.959 50.1637 112.247 34.9313C95.4103 23.1309 77.8657 24.7521 74.3122 29.9333C66.5146 41.3039 100.134 50.9391 122.618 62.182C117.785 64.3566 113.23 68.2582 110.552 73.2478C102.17 63.7694 83.7716 55.6075 62.1838 62.182C47.6357 66.6129 35.5456 77.058 30.8727 92.8348C29.7371 92.3121 28.48 92.0218 27.1575 92.0218C22.1001 92.0218 18 96.2685 18 101.507C18 106.745 22.1001 110.992 27.1575 110.992C28.095 110.992 31.0261 110.34 31.0261 110.34L77.8657 110.692C59.1338 141.471 44.33 145.97 44.33 151.303C44.33 156.635 58.4942 155.19 63.8131 153.202C89.2729 143.687 116.618 114.033 121.311 105.497C141.016 108.043 157.576 108.345 161.264 99.8118Z" fill="url(#paint0_linear_2318_1004)"/>
<path fill-rule="evenodd" clip-rule="evenodd" d="M122.202 61.9985C122.204 61.999 122.205 61.9995 122.206 62C123.234 61.5695 123.068 59.9561 122.786 58.6889C122.137 55.7759 110.942 44.0278 100.43 38.7658C86.107 31.5957 75.5596 31.9649 74 35.2691C76.9174 41.6249 90.4444 47.5921 104.572 53.825C110.599 56.4837 116.736 59.1907 122.205 61.9969C122.204 61.9974 122.203 61.9979 122.202 61.9985Z" fill="url(#paint1_linear_2318_1004)"/>
<path fill-rule="evenodd" clip-rule="evenodd" d="M105 125.597C102.043 124.463 98.7028 123.422 94.905 122.478C98.9543 115.207 99.8037 104.442 95.9797 97.6358C90.6131 88.0841 83.8759 83 68.2208 83C59.6103 83 36.4274 85.9109 36.016 105.333C35.973 107.371 36.015 109.238 36.1621 110.956L78.4955 111.264C72.7883 120.35 67.4431 127.089 62.7636 132.214C68.3821 133.658 73.0185 134.872 77.2752 135.985C81.3141 137.042 85.0114 138.009 88.8806 139C94.7174 134.732 100.205 130.078 105 125.597Z" fill="url(#paint2_linear_2318_1004)"/>
<path d="M29.2183 108.472C30.9445 123.473 39.2856 129.353 56.3301 131.092C73.374 132.832 83.1513 131.665 96.1675 132.875C107.038 133.887 116.745 139.549 120.346 137.592C123.587 135.831 121.773 129.468 117.437 125.386C111.816 120.095 104.037 116.417 90.3478 115.111C93.0758 107.476 92.3112 96.7711 88.0745 90.9472C81.9484 82.5261 70.6411 78.719 56.3301 80.3824C41.378 82.1203 27.0512 89.6443 29.2183 108.472Z" fill="url(#paint3_linear_2318_1004)"/>
</g>
<defs>
<linearGradient id="paint0_linear_2318_1004" x1="60.4897" y1="88.2228" x2="160.551" y2="115.619" gradientUnits="userSpaceOnUse">
<stop stop-color="white"/>
<stop offset="1" stop-color="white"/>
</linearGradient>
<linearGradient id="paint1_linear_2318_1004" x1="142.587" y1="86.3704" x2="67.4075" y2="15.4604" gradientUnits="userSpaceOnUse">
<stop stop-color="#8697FF"/>
<stop offset="1" stop-color="#8697FF" stop-opacity="0"/>
</linearGradient>
<linearGradient id="paint2_linear_2318_1004" x1="107.012" y1="128.132" x2="37.4066" y2="88.2568" gradientUnits="userSpaceOnUse">
<stop stop-color="#8697FF"/>
<stop offset="1" stop-color="#8697FF" stop-opacity="0"/>
</linearGradient>
<linearGradient id="paint3_linear_2318_1004" x1="65.5286" y1="87.7604" x2="113.69" y2="147.629" gradientUnits="userSpaceOnUse">
<stop stop-color="white"/>
<stop offset="0.983895" stop-color="#D1D8FF"/>
</linearGradient>
<clipPath id="clip0_2318_1004">
<rect width="180" height="180" fill="white"/>
</clipPath>
</defs>
</svg>
