<svg width="64" height="10" viewBox="0 0 64 10" fill="none" xmlns="http://www.w3.org/2000/svg">
<path d="M0 10V8.16789H3.10803C3.40872 8.16789 3.60929 8.01344 3.60929 7.75333C3.60929 7.49321 3.40872 7.30968 3.10803 7.30968H0V3.2015H5.10334V5.0336H1.99531C1.69462 5.0336 1.50412 5.21681 1.50412 5.47725C1.50412 5.73769 1.69462 5.9209 1.99531 5.9209H5.10367V10H0ZM5.5747 8.6403V1.8418H7.85087V4.04033C7.85087 4.32952 8.01147 4.49367 8.31216 4.49367C8.61285 4.49367 8.78352 4.32984 8.78352 4.04033V3.2015H11.0496V5.45819H7.74101C7.44032 5.45819 7.24983 5.65109 7.24983 5.90183C7.24983 6.15258 7.44032 6.35518 7.74101 6.35518H11.0496V8.64062H8.78352V7.77272C8.78352 7.48352 8.62292 7.32907 8.31216 7.32907C8.00139 7.32907 7.85087 7.4832 7.85087 7.77272V8.64062H5.5747V8.6403ZM13.8667 8.6403V3.2015H11.5405V8.6403H13.8667ZM15.5412 1.36939C15.5412 2.16007 14.9095 2.79663 14.0972 2.79663C13.2848 2.79663 12.6334 2.16007 12.6334 1.36939C12.6334 0.578713 13.2952 0 14.0972 0C14.8991 0 15.5412 0.607471 15.5412 1.36939ZM14.328 3.2015H17.1656C18.88 3.2015 20.0431 4.30076 20.0431 5.90151C20.0431 7.50226 18.88 8.6403 17.1656 8.6403H16.5739V10H14.328V3.2015ZM17.0651 6.77911C17.5865 6.77911 17.9776 6.42239 17.9776 5.91121C17.9776 5.42911 17.5865 5.05299 17.0651 5.05299C16.5437 5.05299 16.1627 5.42911 16.1627 5.91121C16.1627 6.42239 16.5437 6.77911 17.0651 6.77911Z" fill="#637381"/>
<path d="M20.4043 7.38641C20.4043 6.60542 21.046 5.99763 21.858 5.99763C22.6701 5.99763 23.3118 6.6051 23.3118 7.38641C23.3118 8.16772 22.6701 8.79426 21.858 8.79426C21.046 8.79426 20.4043 8.1674 20.4043 7.38641ZM21.7982 4.43566C21.7982 3.65467 22.4399 3.04688 23.252 3.04688C24.064 3.04688 24.7057 3.65435 24.7057 4.43566C24.7057 5.21697 24.064 5.8435 23.252 5.8435C22.4399 5.8435 21.7982 5.21664 21.7982 4.43566Z" fill="#637381"/>
<path d="M25.0664 5.92253C25.0664 4.31208 26.2396 3.20312 28.0642 3.20312H29.3376L29.7787 5.22813H28.1244C27.6332 5.22813 27.3322 5.50764 27.3322 5.92253C27.3322 6.33741 27.6329 6.61692 28.1244 6.61692H29.7787L29.3376 8.64193H28.0642C26.2393 8.64193 25.0664 7.53297 25.0664 5.92253Z" fill="#637381"/>
<path d="M30.0801 5.92253L31.0426 3.20312H35.2939L36.2464 5.92253L35.2939 8.64193H31.0426L30.0801 5.92253ZM34.1006 5.92253C34.1006 5.41135 33.6994 5.02554 33.1683 5.02554C32.6371 5.02554 32.236 5.41135 32.236 5.92253C32.236 6.43371 32.6371 6.81919 33.1683 6.81919C33.6994 6.81919 34.1006 6.43338 34.1006 5.92253Z" fill="#637381"/>
<path d="M36.7132 3.20312H40.7838C41.6261 3.20312 42.1475 3.70461 42.1475 4.51468V8.64193H39.8915V5.19938C39.8915 4.92925 39.7111 4.74604 39.4403 4.74604C39.1695 4.74604 38.9689 4.92925 38.9689 5.19938V8.64193H36.7129V3.20312H36.7132Z" fill="#637381"/>
<path d="M42.6097 3.20312H46.6803C47.5226 3.20312 48.044 3.70461 48.044 4.51468V8.64193H45.788V5.19938C45.788 4.92925 45.6075 4.74604 45.3368 4.74604C45.066 4.74604 44.8654 4.92925 44.8654 5.19938V8.64193H42.6094V3.20312H42.6097Z" fill="#637381"/>
<path d="M48.4609 5.92253C48.4609 4.31208 49.6039 3.20312 51.2683 3.20312H53.6748V6.16357H50.9877C50.7069 6.16357 50.5063 6.34679 50.5063 6.60722C50.5063 6.86766 50.7069 7.05087 50.9877 7.05087H53.6748V8.64193H51.2683C49.6039 8.64193 48.4609 7.53297 48.4609 5.92253ZM51.91 4.71728C51.91 4.399 51.6593 4.16765 51.3385 4.16765C51.0176 4.16765 50.767 4.399 50.767 4.71728C50.767 5.03555 51.0176 5.25722 51.3385 5.25722C51.6593 5.25722 51.91 5.02586 51.91 4.71728Z" fill="#637381"/>
<path d="M54.1074 5.92253C54.1074 4.31208 55.2806 3.20312 57.1053 3.20312H58.3786L58.8197 5.22813H57.1654C56.6739 5.22813 56.3732 5.50764 56.3732 5.92253C56.3732 6.33741 56.6739 6.61692 57.1654 6.61692H58.8197L58.3786 8.64193H57.1053C55.2806 8.64193 54.1074 7.53297 54.1074 5.92253Z" fill="#637381"/>
<path d="M60.4419 4.94896H59.1387V3.20345H60.4419V1.84375H62.6979V3.20345H64.0015V4.95865H62.6979V6.5594C62.6979 6.81984 62.8884 7.00305 63.1592 7.00305H64.0015V8.64225H60.4419V4.94896Z" fill="#637381"/>
</svg>
