<svg width="180" height="180" viewBox="0 0 180 180" fill="none" xmlns="http://www.w3.org/2000/svg">
<rect width="180" height="180" fill="#3396FF"/>
<path d="M45.7084 62.78C70.1697 39.0733 109.83 39.0733 134.292 62.78L137.236 65.6331C138.459 66.8182 138.459 68.7401 137.236 69.9252L127.165 79.6853C126.553 80.2778 125.562 80.2778 124.95 79.6853L120.899 75.7591C103.834 59.2208 76.1662 59.2208 59.1009 75.7591L54.7621 79.9637C54.1504 80.5562 53.1592 80.5562 52.5475 79.9637L42.4768 70.2035C41.2535 69.0185 41.2535 67.0965 42.4768 65.9115L45.7084 62.78ZM155.12 82.9644L164.083 91.6509C165.306 92.8359 165.306 94.7579 164.083 95.9429L123.667 135.111C122.444 136.296 120.461 136.296 119.238 135.111L90.554 107.313C90.2481 107.016 89.7525 107.016 89.4467 107.313L60.7627 135.111C59.5399 136.296 57.5569 136.296 56.3335 135.111L15.9173 95.9424C14.6942 94.7573 14.6942 92.8354 15.9173 91.6503L24.8804 82.9639C26.1035 81.7788 28.0865 81.7788 29.3096 82.9639L57.9942 110.763C58.3 111.059 58.7956 111.059 59.1014 110.763L87.7849 82.9639C89.0077 81.7782 90.9907 81.7782 92.214 82.9639L120.899 110.763C121.204 111.059 121.7 111.059 122.006 110.763L150.691 82.9644C151.913 81.7788 153.896 81.7788 155.12 82.9644Z" fill="white"/>
</svg>
